<?xml version="1.0" encoding="utf-8"?>
<!-- Generator: Adobe Illustrator 22.0.1, SVG Export Plug-In . SVG Version: 6.00 Build 0)  -->
<svg version="1.1" id="Layer_1" xmlns="http://www.w3.org/2000/svg" xmlns:xlink="http://www.w3.org/1999/xlink" x="0px" y="0px"
	 viewBox="0 0 897.1 264.7" style="enable-background:new 0 0 897.1 264.7;" xml:space="preserve">
<style type="text/css">
	.st0{fill:#FCE500;}
	.st1{fill:#FFFFFF;}
</style>
<path d="M251.3,182.3c-0.1-0.1-0.1-0.2-0.2-0.3c0.8-6.2-0.6-12.3-4.1-17.5c-3.8-5.6-9.5-9.5-16.2-10.8c-0.7-0.1-1.4-0.2-2.1-0.3
	c-0.1,0-0.2,0-0.3,0c-6.8-6.6-14-10-16.6-11.1c0.1-0.4,0.2-0.7,0.2-1c0.1,0,0.2-0.1,0.3-0.1c7.3-3.2,11.6-8.5,12.5-15.5
	c0.7-5.5-0.8-11.6-3.9-15.9c0-0.1,0-0.1,0-0.2c0.7-7.4-0.4-13.9-3.3-19.3c-2.4-4.4-6.1-7.9-10.3-9.8c0,0,0,0-0.1,0
	c-1.2-4-6.3-7-11.7-6.9c-4.3,0.1-9,2.1-10.7,5.4c-6.5,2.4-16.7,8.5-19.8,23.9c-4.5,3.4-7.5,8.4-8.2,13.9c-0.8,6.1,1.3,12.2,5.4,16.7
	c-4.2,0-10.9,0.4-18.8,2c-0.1,0-0.2,0-0.2,0.1c-6.1-4.3-14-6-21-4.1c-0.3,0.1-0.5,0.2-0.8,0.4c-2-0.6-4.1-1-6.4-1.3
	c-0.1,0-0.3,0-0.4,0c-1-3.3-2.8-6.3-5.2-8.7c-0.1-0.1-0.4-0.3-0.4-0.4l0,0c-0.4-2.4-1-5-1.3-6c-0.7-2.4-1.8-5-4.9-8.1
	c-2-2-4.1-3.2-5.6-3.9c0.3-0.8,0.5-1.5,0.6-1.9c0-0.2,0.1-0.3,0.1-0.5c0-0.1,0.8-7.5,1.7-11.9c0-0.1,0-0.1,0-0.2
	c2.4-15.2,2.4-15.4,2.5-15.5v-0.1c0.1-1.4-0.4-2.7-1.3-3.7c-1.2-1.3-2.9-2-4.9-2c-2.7,0-5.1,1.4-6.6,3.8c-0.9,1.4-1.5,3.1-2,4.6
	c-2.5-4.9-5.8-11.3-8.2-16c0-0.1-0.1-0.2-0.1-0.2c-0.8-1.4-2.7-3-5.3-3c-0.8,0-1.6,0.1-2.3,0.4c-1.1-1-2.6-1.5-4.1-1.5
	c-0.8,0-1.5,0.1-2.3,0.4c-2.7,0.9-4.2,3.3-4.2,6.1c-2.1,0.8-3.5,2.4-3.9,4.6c-0.3,1.5,0,2.7,0.2,3.3c0,0.1,0.1,0.2,0.1,0.4
	c-0.1,0.1-0.1,0.2-0.2,0.3c-1.5,2.3-2.3,6.7,3.4,20.9c0,0,0,0.1,0.1,0.1c0.1,0.2,0.2,0.6,0.4,1c1,2.4,3.1,7.4,5.6,11.9
	c1.4,2.5,2.8,4.5,4.1,6.1c-1,1.5-2.5,4-3.2,7.2c-0.8,3.3-0.4,7.6,1,11.7c0.6,1.7,1.3,3.3,2.2,4.8l0,0l0,0c0,0.1-0.1,0.3-0.1,0.4
	c-1,8.1,2.4,16,9.3,21.2c1.1,0.8,2.2,1.5,3.4,2.2c1,3.1,3.1,5.9,6,8.3c2,1.6,4.3,2.9,6.8,3.7c0,0,0,0,0,0.1
	c2.6,3.7,6.5,6.3,11.4,7.7c1.2,0.3,2.5,0.6,3.8,0.8c0.1,0.1,0.1,0.1,0.2,0.2c2.4,2.3,5.5,4.1,9.1,5.1c-0.6,4.7,0,8.3,1,11h133.7
	C254.9,190.6,253.7,186.3,251.3,182.3z"/>
<polygon class="st0" points="720.7,195 89.1,195 84,209 715.6,209 "/>
<path class="st1" d="M460.7,112c-16.3,3.3-38.5,15.4-38.3,37.3c0.1,12.6,15.4,19.7,32.9,19.2c9.8-0.3,19.2-2.1,20.4-2.3l6.5-16.9
	c-8.6,1.4-16.9,3.4-23.3,0.8c-11.7-4.7-4.5-16.8,3.8-20.6c3.6-1.7,8.6-3.2,14.5-3.1c2.5,0,8.5,0.2,10.8,5.5l8.2-19.6
	C482.2,108.8,468.1,110.5,460.7,112z M549.4,111.4l-7.4,20.1h-13.6l7.4-20.1H510l-20.5,55.7h25.7l7-18.9h13.6l-7,18.9h25.7
	l20.5-55.7C575,111.4,549.4,111.4,549.4,111.4z M396.2,111.4l-20.5,55.7h27l20.5-55.7C423.2,111.4,396.2,111.4,396.2,111.4z
	 M342.5,111.4l-19.7,29.9c0,0,1.3-15.7,1.6-19.4c0.2-2.9-0.1-10.5-7.1-10.5H286l-20.5,55.7H290l14.9-40.3l-3.1,40.3h21.7l26.7-39.6
	l-14.6,39.6h24.6l20.5-55.7C380.7,111.4,342.5,111.4,342.5,111.4z M818.8,111.4l-14.1,38.2c0.2-3.9,1-19.1,1.4-27.8
	c0.2-3.6-0.6-6.4-2.3-8.2c-2.1-2.2-4.9-2.2-4.9-2.2h-31.4L747,167.2h22.8l14.5-39.5l-1.7,39.5h38.2l20.5-55.7L818.8,111.4
	L818.8,111.4z M724.5,111.4L704,167.2h27l20.5-55.7L724.5,111.4L724.5,111.4z M610.3,126h30.8l5.4-14.6h-56.3l-20.5,55.7h56.9
	l5.5-15h-31.4l2.3-6.2h29.3l5-13.7H608L610.3,126z M687.7,111.4h-26.3l-20.5,55.7h52.7l6.8-18.5H674L687.7,111.4z"/>
<path class="st1" d="M250.6,195h-5.3c1.7-2,3.1-4.3,4.1-6.8C250.2,190.4,250.6,192.7,250.6,195"/>
<path class="st1" d="M163.5,137.8c0,0,2,0.1,3.1,0.6c2,0.8,5.9,4.5,8,4.8c0.4,0,1.3-0.2,0.3-0.9c-0.3-0.2-2.7-2.4-1.8-3.5l0,0
	c0.3-0.5,0.7-0.6,1.2-0.5c3.1,0.8,5.6,1.2,6.5,1.3c0.5,0.1,0.9,0.1,1.2-0.1c0.2-0.2,0.1-0.3-0.5-0.5c-4.7-1.3-10-3.3-13.6-6.1
	c-4.9-3.8-7.5-9.7-6.8-15.6c0.6-4.3,2.8-8.2,6.4-10.9c1.4-1,3.7-1.8,4.3-2c1.7-0.6-1.1-1.1-1.3-1.1c-0.7-0.1-0.8-0.9-0.2-3.1
	c3.3-10.5,10.5-15.2,16.6-17.2c1.1-0.3,2.7-0.8,3.8-0.9c1.7-0.3,1-1-0.9-1.2c0,0-0.6,0-0.3-0.5c0.1-0.1,0.4-0.5,0.9-0.8
	c1.4-0.9,3.3-1.5,5.5-1.6c3.9-0.1,7.2,2.1,7.6,4.1c0,0,0.1,0.4-0.3,0.4c-0.7,0-1.3,0.3-0.3,0.8c0.2,0.1,1.3,0.4,2.7,1.1
	c0.1,0,0.1,0.1,0.2,0.1c2.9,1.4,12,6.9,11.3,22.5l0,0c0,0.5-0.1,0.9-0.1,1.4c0,0.4-0.1,0.9-0.1,1.3c-0.9-0.1-1.2,0.3-0.6,0.9
	c0.4,0.4,1.5,1.8,2.2,2.8c2,3.4,3.1,7.8,2.5,12c-0.7,5.6-4.2,9-7.6,11c-1.5,0.9-5.1,2.6-9.6,3.6c-0.9,0.2-0.5,1.4,3.7,1.3
	c0.4,0,1.1,0.1,1.3,0.5c0.5,0.9-0.4,2.7-2.2,3.8c-1.6,0.9-0.3,1.1,1.9,0.5c0.6-0.1,2.3,0.6,2.5,0.7c3.6,1.6,12.6,6.2,19.3,15.3
	c4.7,6.7,6.4,12,4.9,15.3c-1.4,3.2-5.7,3.8-5.7,3.8s0,0-0.1,0c-16.3,2.5-44.7-1.9-64.2-7.7c-3.5-1-8.7-2.9-13.1-4.8
	c4.3-9.3,2.6-21.2-4.4-29.2c-0.1-0.1-0.2-0.2-0.3-0.3C154.4,137.9,160.2,137.8,163.5,137.8"/>
<path class="st1" d="M243.5,166.9c3.1,4.7,4.3,10.3,3.2,15.9c-0.9,4.7-3.4,8.9-7,11.9c0.1-3.9-0.6-8.4-3.4-12
	c1.1-0.9,2.2-2.1,2.9-3.7c2.2-4.8,0.4-11.4-5.3-19.6c0,0,0,0,0-0.1c-0.1-0.2-0.2-0.3-0.4-0.5C237.5,160.4,241,163.2,243.5,166.9"/>
<path class="st1" d="M144.5,142.3c6.5,7.4,7.6,18.6,2.6,26.6c-5.6,9.1-15.7,13.5-25.1,11.2c-1.4-0.3-2.6-0.8-3.8-1.4
	c0.9-0.1,1.8-0.3,2.6-0.6c9.2-2.5,16.1-11,17.2-21.2c0.6-6.4-1.2-12.9-5-17.6c-1.3-1.7-2.9-3.1-4.7-4.3
	C134.3,135,140.4,137.6,144.5,142.3"/>
<path class="st1" d="M129.6,142c3.1,3.9,4.6,9.2,4.1,14.5c-0.9,8.4-6.5,15.4-14,17.5c-6.3,1.7-12.4,0.2-16.6-2.5
	c9.2-0.2,18-6.5,20.9-15.7c1.5-4.6,1.4-9.6-0.3-14.1c-0.8-2.1-1.9-4-3.2-5.7C124.5,137.2,127.4,139.2,129.6,142"/>
<path class="st1" d="M115.3,142.2c0.3-1.7,0.5-3.5,0.4-5.2c4.5,4.3,6.3,11.1,4.3,17.4c-2.8,8.7-12.1,14.2-20.7,12.3
	c-3.6-0.8-7.9-3.1-10.4-6.4c1.6,0.3,3.1,0.5,4.7,0.5c3,0,6-0.6,8.8-1.8C109,156.1,113.8,149.9,115.3,142.2"/>
<path class="st1" d="M108.8,127.9L108.8,127.9c2.3,3.8,3.1,8.6,2.2,13.5c-1.2,6.3-5.1,11.4-10.4,13.7c-6.1,2.6-13,1.7-18.6-2.5
	c-4.4-3.3-7.1-8.1-7.7-13.1l0,0c0.4,0.4,0.9,0.8,1.4,1.1c3.4,2.4,7.5,3.7,12,3.7c3,0,5.3-0.6,5.7-0.7c7.9-2.2,11.7-6.9,13.6-10.5
	C107.9,131.2,108.5,129.4,108.8,127.9"/>
<path class="st1" d="M60.5,73c0.1,0,0.1-0.1,0.2-0.1c0.2-0.1,0.3-0.2,0.5-0.3c0.1,0,0.1,0,0.2,0c0.2,0,0.4,0,0.6,0
	c0.1,0,0.3,0,0.4,0.1c1.2,0.5,2.2,2,2.4,4.2c0.8,6.3,3.8,10.4,3.9,10.6c0.2,0.3,0.5,0.4,0.8,0.4c0.2,0,0.4-0.1,0.5-0.2
	c0.4-0.3,0.5-0.9,0.2-1.3c0,0-2.8-3.9-3.6-9.8c-0.4-2.9-1.7-5-3.7-5.7c-0.5-0.2-0.9-0.2-1.4-0.2c-0.3-0.6-0.5-1.1-0.6-1.4
	c-0.2-0.8-0.5-2.4,1.2-3c0.1,0,0.2-0.1,0.3-0.1s0.1,0,0.2,0c1.3-0.2,3,0.4,4.7,6.5c1.6,5.5,5.1,10.9,5.2,11.2
	c0.2,0.3,0.5,0.4,0.8,0.4c0.2,0,0.4,0,0.5-0.2c0.4-0.3,0.5-0.9,0.3-1.3c0-0.1-3.5-5.4-5-10.6c-0.7-2.6-1.8-5.4-3.5-6.9
	c-0.2-0.6-0.5-1.4-0.6-1.6c-0.3-0.9-0.6-2.9,1.1-3.4c0.3-0.1,0.7-0.2,0.9-0.2c1.3,0,2,1.2,2.4,2c0,0.1,0.1,0.3,0.2,0.4l7.7,18.3
	c0,0.1,0.1,0.3,0.2,0.3c0.2,0.2,0.6,0.3,0.9,0.2c0.4-0.2,0.7-0.7,0.5-1.1l-7.5-17.8c0.1-0.3,0.4-0.7,0.8-0.9
	c0.5-0.2,0.9-0.3,1.2-0.3c1.1,0,1.7,0.9,1.7,0.9S85.2,81.4,87,84.8c-0.8,1.3-1.4,2.5-1.5,2.8c-0.1,0.5,0.2,0.9,0.4,0.5
	c0.6-0.8,1.4-1.8,2-2.6l0,0l0,0l0.1-0.1c0.5-0.8,1.9-4.7,2.5-5.9c0.4-1.8,1.2-4.2,2.2-5.7c0.8-1.3,2-1.8,3.1-1.8s2,0.6,2,1.1
	c0,0.3-2.4,15.3-2.4,15.3c-0.6,3.1-1.2,7.6-1.5,10.2c0,0.6-0.1,1.3-0.2,1.9c0,0.1,0,0.2,0,0.2s0,0.1-0.1,0.4c-0.5,2.3-1.4,4-1.4,4
	l0.8,3.6l0,0c0.3,1.5,0.6,3.1,0.8,3.6c0.6,2-0.2,3.2,0.2,3.6c0.5,0.6,1.8-2.1,2.1-3.5c0.3-1.1-0.2-3.4-0.5-5
	c1.1,0.5,2.7,1.4,4.2,2.9c2.6,2.6,3.3,4.6,3.8,6.3c0.5,1.7,1.3,5.2,1.4,7.2c0.1,1.9-0.6,12.2-12.7,15.6c0,0-1.9,0.6-4.5,0.6
	c-2.7,0-6.2-0.6-9.5-2.9c-5.9-4.2-8.2-13.3-7-18.1c0.5-2.3,1.5-4.1,2.3-5.3c0.6,0.3,1.1,0.6,1.7,0.8l0.4,1.7c0,0.2,1,4.8,2.8,6.2
	c1.1,0.8,2.8,0.9,3.3,0.9s1.8-0.1,2-0.6c0-0.1,0.1-0.3-0.1-0.6c-0.1-0.1-0.2-0.2-0.6-0.4c-0.9-0.5-2.5-1.3-2.8-2.9
	c-0.2-0.9-0.9-4-1.4-5.9c1.8-1.4,2-3-0.4-2.5c-1.4,0.3-2.7-0.4-3.8-1.2C70,105.1,65,92.4,64,90.1C60.1,79.9,59.2,74.5,60.5,73"/>
<path class="st1" d="M124.4,184.9c0.9,0.1,1.8,0.1,2.7,0.1c8.8,0,17.4-4.7,22.9-12.7c4.7,2.1,10.2,4.1,14.1,5.2
	c10.8,3.2,23.1,5.7,34.7,7.2c7.3,0.9,14,1.4,19.8,1.4c4.4,0,8.3-0.3,11.6-0.8c0.2,0,1.1-0.2,2.2-0.6c2.6,2.8,3.2,6.8,3,10.2H125.8
	C124.8,193,123.9,189.7,124.4,184.9"/>
<path d="M184.8,110.9c0.5,0.6,1.1,1,1.8,1.3c0.6,0.2,1.2,0.3,1.9,0.4c0,0,1.1,0.1,1.7,0.1c2.7-0.1,5.2-4.2,5.3-8.3
	c0.1-3.7-0.4-6.5-3.1-8.1c-0.3-0.2-0.6-0.3-0.9-0.4c-1.1-0.4-2.5-0.5-3.6-0.2c-1.4,0.4-2.4,1.4-3.2,2.6c-0.7,1.2-1.2,2.7-1.5,4.1
	s-0.4,2.9-0.2,4.4C183.3,108.1,183.8,109.7,184.8,110.9z M184.3,104.4c0.2-1.7,1.2-7.2,5.5-6.8c3.3,0.3,4.2,2.8,4.5,4.9
	c0,0.1,0,0.2,0,0.3c0.2,2.1-0.2,3.6-0.7,4.9c-0.2,0.5-0.5,1.1-0.8,1.5c-0.8,1.3-1.8,2.1-2.6,2.1c-0.1,0-0.2,0-0.2,0
	c1.5-0.8,2.6-2.8,2.8-5.2c0.3-3.2-1.2-6-3.4-6.2c-1-0.1-2,0.4-2.8,1.3c0.8,0,1.4,0.8,1.5,1.8c0,1-0.6,1.9-1.4,2
	c-0.7,0-1.2-0.5-1.4-1.2c-0.2,0.5-0.3,1.1-0.3,1.7c-0.2,2,0.3,3.8,1.2,4.9c-0.1-0.1-0.3-0.2-0.4-0.4c-0.7-0.8-1.2-2.1-1.4-3.6
	C184.3,105.8,184.2,105.1,184.3,104.4z M209.7,120.1c-0.5-0.1-0.6,0.3-0.4,0.5c0.1,0,0.1,0.1,0.2,0.2c-0.2,0.1-0.3,0.2-0.5,0.3
	c-1,0.5-2.1,0.8-3.3,1.1c-2.7,0.6-5.6,0.7-8.4,0.4c-4.6-0.4-9.2-1.4-13.5-3.2c-0.4-0.2-0.8-0.3-1.1-0.5c-0.2-0.1-0.4-0.2-0.6-0.3
	l0,0c-0.6-0.2-1.2,0.2-1.2,0.8c0,0.5,0.3,0.8,0.7,1c1.1,0.6,2.4,1,3.6,1.5c1.1,0.5,1.8,1.4,2.6,2.2c1,1,2,1.9,3.2,2.6
	c2.3,1.3,5.2,1.8,7.8,1.4c1.4-0.2,2.6-0.7,3.8-1.4c0.8-0.5,1.6-1.2,2.4-1.8c0.5-0.4,0.9-0.7,1.4-1c0.3-0.2,2.4-1,3.5-1.6
	c0,0.4,0,0.7,0.2,0.8c0.3,0.1,0.5-0.5,0.6-0.9c0.1-0.5,0-0.9-0.1-1.2C210.6,120.6,210.1,120.1,209.7,120.1z M199.9,126.1
	c-1.2,0.4-2.5,0.4-3.7,0.3s-2.5-0.4-3.6-0.9c-1.2-0.6-2.3-1.5-3.2-2.4c4.5,1.1,9.2,1.7,13.8,1.2C202.2,125,201.1,125.7,199.9,126.1z
	 M182.8,117.2c-0.1-0.4-0.6-0.4-0.7-0.4c-0.4,0-1,0.1-1.4,0.3c-1.1,0.4-2,1.7-1.9,2.5c0,0.1,0,0.2,0.1,0.3c0.1,0.1,0.2,0.2,0.4,0.2
	l0,0l0,0l0,0c0.2,0,0.3-0.2,0.3-0.4c0-0.2,0.1-0.6,0.4-0.9c0.3-0.3,0.8-0.8,2.2-1C182.6,117.8,182.9,117.6,182.8,117.2z
	 M212.4,101.9c-0.4-1.3-1.1-2.6-2.3-3.3c-1-0.6-2.2-0.9-3.4-0.7c-0.3,0-0.6,0.1-0.9,0.2c-2.9,0.9-4.1,3.5-4.9,7
	c-0.9,3.9,0.4,8.5,2.9,9.2c0.6,0.2,1.6,0.4,1.6,0.4c0.6,0.1,1.3,0.2,1.9,0.1c0.7-0.1,1.4-0.3,2-0.8c1.2-0.9,2-2.3,2.6-3.6
	c0.6-1.4,0.8-2.8,0.9-4.2C212.8,104.8,212.7,103.3,212.4,101.9z M211.3,108c-0.1,0.7-0.3,1.4-0.6,2c-0.6,1.4-1.4,2.5-2.2,3.1
	c-0.4,0.3-0.8,0.4-1.2,0.5c1.4-0.8,2.5-2.8,2.7-5.1c0.3-3.2-1.2-6-3.3-6.2c-1-0.1-2,0.4-2.8,1.3c0.8,0,1.4,0.8,1.4,1.8
	s-0.6,1.9-1.3,2c-0.6,0-1.2-0.5-1.4-1.2c-0.2,0.5-0.3,1.1-0.3,1.7c-0.2,2.2,0.4,4.1,1.5,5.2c-0.6-0.4-1.2-1.3-1.6-2.5
	c-0.2-0.5-0.3-1.1-0.3-1.7c-0.1-1.4-0.2-2.9,0.6-4.9c0-0.1,0.1-0.2,0.1-0.3c0.8-2,2.2-4.1,5.4-3.6C212,100.8,211.6,106.3,211.3,108z
	"/>
</svg>
