<svg id="Layer_1" data-name="Layer 1" xmlns="http://www.w3.org/2000/svg" viewBox="0 0 897.05 264.69"><defs><style>.cls-1{fill:#fce500;}.cls-2{fill:#27509b;}.cls-3{fill:#fff;}</style></defs><title>Michelin_C_H_WhiteBG_RGB_0703</title><polygon class="cls-1" points="720.71 195.03 89.11 195.03 84.03 208.97 715.59 208.97 720.71 195.03"/><path class="cls-2" d="M460.75,112c-16.35,3.35-38.5,15.36-38.27,37.28.14,12.64,15.41,19.66,32.92,19.17a141,141,0,0,0,20.36-2.27l6.5-16.88c-8.6,1.36-16.86,3.42-23.34.83-11.68-4.67-4.49-16.82,3.77-20.59a33,33,0,0,1,14.54-3.12c2.47,0,8.5.15,10.84,5.48l8.17-19.58C482.18,108.82,468.07,110.47,460.75,112Zm88.6-.51-7.44,20.07H528.33l7.39-20.07H510l-20.46,55.73h25.66l7-18.87h13.61l-7,18.87h25.69L575,111.45Zm-153.15,0-20.53,55.72h27l20.5-55.72Zm-53.68,0-19.72,29.93s1.25-15.66,1.57-19.43c.23-2.87-.12-10.5-7.11-10.5H286l-20.51,55.72h24.46l14.86-40.31-3.13,40.31H323.4l26.66-39.6-14.55,39.6h24.63l20.51-55.72Zm476.23,0L804.68,149.7c.19-3.85,1-19.06,1.43-27.83.19-3.61-.59-6.36-2.31-8.19a7.45,7.45,0,0,0-4.91-2.23H767.53L747,167.18H769.8l14.54-39.47-1.72,39.47h38.18l20.52-55.73Zm-94.29,0L704,167.17h27l20.5-55.72ZM610.33,126h30.79l5.42-14.6H590.25l-20.51,55.73h56.91l5.53-15H600.76l2.3-6.2h29.32l5-13.72H608.09Zm77.4-14.6H661.47l-20.54,55.73h52.73l6.82-18.52H674Z"/><path d="M60.16,91.7l.06.14.42,1a117.5,117.5,0,0,0,5.6,11.86,37,37,0,0,0,4.11,6.07,21.62,21.62,0,0,0-3.24,7.15,21.89,21.89,0,0,0,1,11.69,25.37,25.37,0,0,0,2.21,4.81l0,0,0,0a2.21,2.21,0,0,0-.09.4A22.74,22.74,0,0,0,79.49,156a25.07,25.07,0,0,0,3.41,2.15,17.61,17.61,0,0,0,6,8.27,24.09,24.09,0,0,0,6.75,3.72l0,.07A20.45,20.45,0,0,0,107.17,178a26.14,26.14,0,0,0,3.76.76,2,2,0,0,0,.19.22,21.54,21.54,0,0,0,9.07,5.08,23.32,23.32,0,0,0,1,11H254.86a24,24,0,0,0-3.53-12.71,2.14,2.14,0,0,0-.21-.28,25.42,25.42,0,0,0-20.26-28.33c-.67-.13-1.37-.24-2.06-.32h-.28A55.52,55.52,0,0,0,212,142.32c.08-.36.15-.71.23-1l.27-.09C219.73,138,224,132.7,225,125.73A22.9,22.9,0,0,0,221,109.87a2.07,2.07,0,0,0,0-.22c.74-7.44-.38-13.94-3.33-19.3a23.05,23.05,0,0,0-10.27-9.82l-.06,0c-1.18-4-6.28-7-11.73-6.9-4.3.12-9,2.13-10.75,5.43-6.54,2.36-16.69,8.45-19.76,23.86a20.49,20.49,0,0,0-2.8,30.58,97.72,97.72,0,0,0-18.84,2l-.24.06a25.76,25.76,0,0,0-21-4.12,2.15,2.15,0,0,0-.76.37,38,38,0,0,0-6.44-1.31,2.12,2.12,0,0,0-.43,0,21.07,21.07,0,0,0-5.19-8.71c-.12-.12-.4-.34-.4-.36l0,0a50.56,50.56,0,0,0-1.33-6,17.73,17.73,0,0,0-4.89-8.1,19.28,19.28,0,0,0-5.56-3.85,14,14,0,0,0,.56-1.86,4.2,4.2,0,0,0,.08-.47c0-.07.78-7.52,1.67-11.94l0-.16C102,73.86,102,73.64,102.05,73.47v-.09a4.89,4.89,0,0,0-1.33-3.73,6.59,6.59,0,0,0-4.87-2,7.76,7.76,0,0,0-6.64,3.8,20.71,20.71,0,0,0-2,4.55c-2.52-4.88-5.82-11.31-8.19-16l-.13-.24a6.31,6.31,0,0,0-5.33-3,6.65,6.65,0,0,0-2.34.43,6.25,6.25,0,0,0-4.1-1.51,7.16,7.16,0,0,0-2.28.39,6.16,6.16,0,0,0-4.21,6.12,6,6,0,0,0-3.91,4.56,7.85,7.85,0,0,0,.16,3.32c0,.09.05.23.12.44l-.19.28c-1.49,2.34-2.26,6.65,3.35,20.88"/><path class="cls-3" d="M250.57,195h-5.29a25.75,25.75,0,0,0,4.12-6.81,19.49,19.49,0,0,1,1.16,6.81"/><path class="cls-3" d="M163.51,137.8a13.53,13.53,0,0,1,3.12.59c2,.75,5.88,4.5,8,4.83.37,0,1.34-.19.29-.94-.29-.21-2.74-2.39-1.83-3.52l0,0a1.1,1.1,0,0,1,1.2-.46c3.07.76,5.63,1.2,6.51,1.33.54.08.93.09,1.15-.1s.06-.32-.54-.49c-4.74-1.27-10-3.31-13.62-6.06a17,17,0,0,1-6.76-15.62,16.39,16.39,0,0,1,6.37-10.93,18.44,18.44,0,0,1,4.31-2c1.72-.62-1.1-1.07-1.3-1.11-.72-.12-.76-.86-.17-3.12a25.31,25.31,0,0,1,16.56-17.22,31.89,31.89,0,0,1,3.77-.95c1.66-.25,1-1-.86-1.22,0,0-.64,0-.33-.45a4.57,4.57,0,0,1,.95-.83,11,11,0,0,1,5.45-1.58c3.87-.1,7.21,2.06,7.6,4.05,0,0,.14.4-.33.42-.74,0-1.34.34-.32.85.24.12,1.27.43,2.72,1.1l.21.11c2.92,1.36,12,6.88,11.34,22.5h0c0,.47-.06.94-.09,1.4s-.09.86-.14,1.29c-.85-.1-1.23.26-.62.88a18.66,18.66,0,0,1,2.17,2.79,19.06,19.06,0,0,1,2.52,12,14.76,14.76,0,0,1-7.63,11,36.56,36.56,0,0,1-9.58,3.65c-.91.21-.48,1.39,3.74,1.33.36,0,1.13.08,1.35.5.49.91-.35,2.69-2.19,3.77-1.58.93-.32,1.13,1.88.47a7.76,7.76,0,0,1,2.55.67,50.18,50.18,0,0,1,19.33,15.34c4.68,6.72,6.38,12,4.91,15.33s-5.65,3.82-5.68,3.82h-.07c-16.34,2.54-44.69-1.94-64.24-7.7a116.59,116.59,0,0,1-13.12-4.81,27.41,27.41,0,0,0-4.44-29.15l-.29-.31a92.63,92.63,0,0,1,16.11-1.32"/><path class="cls-3" d="M243.49,166.9a21.11,21.11,0,0,1-3.78,27.77c.1-3.87-.58-8.38-3.43-12a9.74,9.74,0,0,0,2.89-3.68c2.16-4.84.37-11.43-5.32-19.6l0-.05-.37-.48a21,21,0,0,1,10.05,8"/><path class="cls-3" d="M144.47,142.28c6.53,7.36,7.63,18.56,2.61,26.64-5.62,9.06-15.7,13.54-25.08,11.15a19.85,19.85,0,0,1-3.83-1.4,23.52,23.52,0,0,0,2.64-.55c9.23-2.5,16.12-11,17.15-21.19a24.54,24.54,0,0,0-5-17.65,21.18,21.18,0,0,0-4.65-4.33,22,22,0,0,1,16.15,7.33"/><path class="cls-3" d="M129.61,142a20.21,20.21,0,0,1,4.07,14.54c-.85,8.41-6.48,15.43-14,17.47a20.54,20.54,0,0,1-16.58-2.53A22.89,22.89,0,0,0,124,155.76a21.7,21.7,0,0,0-.28-14.1,20.72,20.72,0,0,0-3.2-5.68,18.06,18.06,0,0,1,9,6"/><path class="cls-3" d="M115.26,142.22a25.46,25.46,0,0,0,.44-5.21A17,17,0,0,1,120,154.45c-2.8,8.71-12.08,14.24-20.68,12.32a18.86,18.86,0,0,1-10.43-6.41,22.36,22.36,0,0,0,4.72.51,22,22,0,0,0,8.81-1.84,22.66,22.66,0,0,0,12.89-16.81"/><path class="cls-3" d="M108.83,127.88s0,0,0,0A19.27,19.27,0,0,1,111,141.41a17.86,17.86,0,0,1-29,11.19,18.83,18.83,0,0,1-7.66-13.14v0c.44.39.9.75,1.37,1.09a20.31,20.31,0,0,0,12,3.72,21.64,21.64,0,0,0,5.69-.72c7.86-2.22,11.71-6.94,13.56-10.51a20.61,20.61,0,0,0,1.84-5.13"/><path class="cls-3" d="M60.48,73l.17-.12a1.41,1.41,0,0,1,.52-.3l.19,0,.57,0a2,2,0,0,1,.4.1c1.24.45,2.15,2,2.44,4.21a25.27,25.27,0,0,0,3.9,10.6.93.93,0,1,0,1.52-1.09,23.69,23.69,0,0,1-3.56-9.76c-.39-2.93-1.72-5-3.65-5.72a3.74,3.74,0,0,0-1.41-.23A10.81,10.81,0,0,1,61,69.14c-.19-.8-.55-2.39,1.23-3l.34-.1h.18c1.29-.16,3,.43,4.67,6.46a46.29,46.29,0,0,0,5.25,11.17.93.93,0,0,0,1.56-1,45.17,45.17,0,0,1-5-10.65c-.73-2.6-1.76-5.43-3.51-6.88-.25-.64-.53-1.35-.6-1.58-.3-.89-.61-2.87,1.09-3.43a3,3,0,0,1,.94-.17,2.71,2.71,0,0,1,2.37,2c0,.12.11.25.17.39l7.67,18.32a.71.71,0,0,0,.24.33.86.86,0,0,0,1.36-1L71.49,62.24a1.64,1.64,0,0,1,.85-.88A2.71,2.71,0,0,1,73.56,61a2.07,2.07,0,0,1,1.69.94S85.16,81.42,87,84.78a19,19,0,0,0-1.45,2.82c-.13.5.2.95.44.48a28.9,28.9,0,0,1,2-2.57l0,0h0a.28.28,0,0,0,.07-.11c.47-.83,1.92-4.7,2.5-5.92a20.61,20.61,0,0,1,2.15-5.73,3.58,3.58,0,0,1,3.06-1.81c1.12,0,2,.57,2,1.15,0,.26-2.43,15.29-2.43,15.29-.63,3.14-1.19,7.64-1.5,10.25a12.67,12.67,0,0,1-.21,1.89l0,.2s0,.14-.09.37a19.58,19.58,0,0,1-1.4,4l.78,3.58h0c.31,1.51.65,3.13.78,3.62.57,2-.16,3.22.21,3.63.52.57,1.78-2.14,2.11-3.54a14.74,14.74,0,0,0-.53-5,15,15,0,0,1,4.22,2.95,13.47,13.47,0,0,1,3.82,6.28A37.26,37.26,0,0,1,105,123.8c.05,1.93-.61,12.18-12.73,15.59a17.18,17.18,0,0,1-4.5.56A16,16,0,0,1,78.27,137c-5.86-4.17-8.15-13.28-7-18.1a17.24,17.24,0,0,1,2.31-5.29,8.29,8.29,0,0,0,1.72.8l.35,1.66c0,.2,1,4.83,2.78,6.24a5.89,5.89,0,0,0,3.29.89c.53,0,1.8-.06,2-.61a.5.5,0,0,0-.14-.56,2.49,2.49,0,0,0-.56-.35c-.86-.47-2.47-1.33-2.81-2.91-.19-.89-.93-4-1.36-5.85,1.8-1.43,2-3-.36-2.51a4.6,4.6,0,0,1-3.75-1.17C70,105.11,65.08,92.4,64.09,90.15c-4-10.2-4.86-15.67-3.61-17.2"/><path class="cls-3" d="M124.42,184.86a25.13,25.13,0,0,0,2.67.15c8.82,0,17.42-4.65,22.89-12.67A118,118,0,0,0,164,177.51a230,230,0,0,0,34.65,7.2,158.68,158.68,0,0,0,19.83,1.4,76.86,76.86,0,0,0,11.61-.78,12.92,12.92,0,0,0,2.25-.55c2.65,2.79,3.17,6.83,3,10.25H125.85a17.62,17.62,0,0,1-1.42-10.18"/><path d="M182.83,117.2c-.1-.37-.57-.37-.73-.37a4.14,4.14,0,0,0-1.36.28,3.08,3.08,0,0,0-1.92,2.53.44.44,0,0,0,.13.31.53.53,0,0,0,.4.16h0a.36.36,0,0,0,.35-.36,1.52,1.52,0,0,1,.43-.87,3.82,3.82,0,0,1,2.17-1c.25-.06.6-.25.5-.62"/><path d="M199.92,126.06a9.78,9.78,0,0,1-3.73.34,10.54,10.54,0,0,1-3.59-.91,11.59,11.59,0,0,1-3.24-2.42,40.63,40.63,0,0,0,13.77,1.19,10.08,10.08,0,0,1-3.21,1.8m9.75-6c-.46-.05-.58.34-.4.49a1.24,1.24,0,0,1,.18.19L209,121a15.58,15.58,0,0,1-3.26,1.08,28,28,0,0,1-8.39.45,44.42,44.42,0,0,1-13.45-3.19l-1.13-.5c-.19-.08-.37-.2-.56-.27h0a.93.93,0,0,0-1.24.82,1,1,0,0,0,.67,1,27.84,27.84,0,0,0,3.58,1.47,9.13,9.13,0,0,1,2.62,2.23,14.87,14.87,0,0,0,3.23,2.62,12.28,12.28,0,0,0,7.78,1.37,10.11,10.11,0,0,0,3.79-1.41,24.06,24.06,0,0,0,2.37-1.78,11.82,11.82,0,0,1,1.44-1c.3-.17,2.4-1,3.51-1.65,0,.39,0,.73.24.78s.55-.49.65-.94a2,2,0,0,0-.11-1.17,1.52,1.52,0,0,0-1.05-.76"/><path d="M184.28,104.41c.16-1.74,1.17-7.2,5.53-6.76,3.32.33,4.21,2.78,4.46,4.92,0,.09,0,.19,0,.29a10,10,0,0,1-.71,4.94,9.39,9.39,0,0,1-.77,1.53,3.91,3.91,0,0,1-2.65,2.1h-.25a6.42,6.42,0,0,0,2.85-5.15c.29-3.22-1.24-6-3.43-6.18a3.41,3.41,0,0,0-2.82,1.33,1.95,1.95,0,0,1,.11,3.75,1.54,1.54,0,0,1-1.44-1.25,8.66,8.66,0,0,0-.32,1.66,7,7,0,0,0,1.24,4.9,2.88,2.88,0,0,1-.36-.36,7.37,7.37,0,0,1-1.38-3.63,10.61,10.61,0,0,1-.07-2.11m.51,6.49a4.15,4.15,0,0,0,1.8,1.27,7,7,0,0,0,1.91.39,16,16,0,0,0,1.72.08c2.68-.11,5.21-4.23,5.29-8.26.08-3.67-.41-6.49-3.06-8.14a4.79,4.79,0,0,0-.87-.42,6,6,0,0,0-3.59-.16,5.39,5.39,0,0,0-3.16,2.58,13.38,13.38,0,0,0-1.49,4.07,12.52,12.52,0,0,0-.19,4.37,8.6,8.6,0,0,0,1.65,4.23"/><path d="M211.3,108a10.76,10.76,0,0,1-.6,2,7.39,7.39,0,0,1-2.2,3.13,2.81,2.81,0,0,1-1.22.5,6.59,6.59,0,0,0,2.68-5.08c.29-3.22-1.2-6-3.33-6.17a3.33,3.33,0,0,0-2.77,1.34,1.69,1.69,0,0,1,1.44,1.79,1.72,1.72,0,0,1-1.34,2,1.5,1.5,0,0,1-1.41-1.24,8.64,8.64,0,0,0-.31,1.66,6.79,6.79,0,0,0,1.46,5.21,4.38,4.38,0,0,1-1.6-2.52,9,9,0,0,1-.33-1.66,10.12,10.12,0,0,1,.58-4.92l.09-.28c.77-2,2.22-4.11,5.41-3.6,4.19.68,3.75,6.16,3.46,7.87m1.05-6.06a5.31,5.31,0,0,0-2.3-3.27,5.73,5.73,0,0,0-3.41-.75,4.76,4.76,0,0,0-.91.19c-2.9.92-4.06,3.49-4.92,7-.94,3.88.38,8.46,2.85,9.24a14.5,14.5,0,0,0,1.63.35,6.57,6.57,0,0,0,1.88.11,4,4,0,0,0,2-.76,8.62,8.62,0,0,0,2.61-3.65,12.66,12.66,0,0,0,.92-4.23,13.52,13.52,0,0,0-.36-4.27"/></svg>